<svg height="511pt" viewBox="0 -16 511.99975 511" width="511pt" xmlns="http://www.w3.org/2000/svg"><path d="m226.785156 189.316406c-10.679687 10.675782-10.679687 27.984375 0 38.664063l57.734375 57.734375c10.675781 10.679687 27.988281 10.679687 38.664063 0l180.808594-180.808594c10.675781-10.675781 10.675781-27.984375 0-38.664062l-57.734376-57.734376c-10.679687-10.675781-27.988281-10.675781-38.664062 0zm0 0" fill="#5b9ed6"/><path d="m503.992188 66.242188-32.757813-32.753907c10.675781 10.675781 10.675781 27.984375 0 38.664063l-180.808594 180.804687c-10.675781 10.679688-27.984375 10.679688-38.664062 0l32.757812 32.757813c10.675781 10.679687 27.988281 10.679687 38.664063 0l180.808594-180.808594c10.675781-10.675781 10.675781-27.988281 0-38.664062zm0 0" fill="#508bbd"/><path d="m366.132812 49.960938 96.398438 96.398437-23.019531 23.023437-96.398438-96.398437zm0 0" fill="#5a67ad"/><path d="m406.753906 136.628906 23.019532-23.019531 32.757812 32.757813-23.023438 23.019531zm0 0" fill="#4b558f"/><path d="m0 463.664062c12.28125 45.808594 208.6875-6.558593 214.023438-110.335937.472656-9.15625 5.734374-17.421875 12.21875-23.90625l50.992187-50.992187-46-46zm0 0" fill="#f4f4f4"/><path d="m251.863281 253.058594-50.992187 50.992187c-6.484375 6.484375-11.746094 14.75-12.21875 23.90625-4.085938 79.472657-120.21875 128.796875-179.914063 126.96875l-8.738281 8.738281c12.28125 45.808594 208.6875-6.558593 214.023438-110.335937.472656-9.15625 5.734374-17.421875 12.21875-23.90625l50.992187-50.992187zm0 0" fill="#dbdbdb"/></svg>