<svg height="512pt" viewBox="0 -88 512.001 512" width="512pt" xmlns="http://www.w3.org/2000/svg"><path d="m495.265625 312.128906h-478.53125c-9.242187 0-16.734375-7.492187-16.734375-16.734375v-278.660156c0-9.242187 7.492188-16.734375 16.734375-16.734375h478.53125c9.242187 0 16.734375 7.492188 16.734375 16.734375v278.660156c0 9.242188-7.492188 16.734375-16.734375 16.734375zm0 0" fill="#e6e6e6"/><path d="m494.761719 0h-18.046875v254.71875c0 9.523438-7.71875 17.242188-17.238282 17.242188h-459.476562v22.929687c0 9.519531 7.71875 17.238281 17.238281 17.238281h477.523438c9.519531 0 17.238281-7.714844 17.238281-17.238281v-277.648437c0-9.523438-7.71875-17.242188-17.238281-17.242188zm0 0" fill="#ccc"/><path d="m138.390625 336.839844h-69.714844c-6.351562 0-11.5-5.148438-11.5-11.5v-13.210938h92.714844v13.207032c0 6.355468-5.148437 11.503906-11.5 11.503906zm0 0" fill="#e6e6e6"/><path d="m443.324219 336.839844h-69.714844c-6.351563 0-11.5-5.148438-11.5-11.5v-13.210938h92.714844v13.207032c0 6.355468-5.148438 11.503906-11.5 11.503906zm0 0" fill="#e6e6e6"/><path d="m293.738281 271.960938h-245.457031c-7.035156 0-12.738281-5.703126-12.738281-12.738282v-206.3125c0-7.035156 5.703125-12.738281 12.738281-12.738281h245.457031c7.035157 0 12.738281 5.703125 12.738281 12.738281v206.3125c.003907 7.035156-5.699218 12.738282-12.738281 12.738282zm0 0" fill="#919191"/><path d="m279.308594 40.167969v160.183593c0 24.542969-19.894532 44.441407-44.441406 44.441407h-199.328126v14.042969c0 7.25 5.875 13.125 13.125 13.125h244.691407c7.25 0 13.125-5.875 13.125-13.125v-205.542969c0-7.25-5.875-13.125-13.125-13.125zm0 0" fill="#828282"/><path d="m461.265625 237.511719c0 25.082031-20.335937 45.414062-45.414063 45.414062-25.082031 0-45.414062-20.332031-45.414062-45.414062s20.332031-45.414063 45.414062-45.414063c25.078126 0 45.414063 20.332032 45.414063 45.414063zm0 0" fill="#5b9ed6"/><path d="m415.851562 192.097656c-4.839843 0-9.496093.761719-13.867187 2.164063 18.300781 5.859375 31.550781 23.003906 31.550781 43.25 0 20.242187-13.25 37.386719-31.550781 43.25 4.371094 1.398437 9.03125 2.160156 13.867187 2.160156 25.082032 0 45.414063-20.332031 45.414063-45.414063 0-25.078124-20.335937-45.410156-45.414063-45.410156zm0 0" fill="#5390c4"/><path d="m396.476562 67.960938h-33.710937c-6.621094 0-11.988281-5.367188-11.988281-11.988282v-3.8125c0-6.621094 5.367187-11.988281 11.988281-11.988281h33.710937c6.621094 0 11.988282 5.367187 11.988282 11.988281v3.8125c.003906 6.621094-5.367188 11.988282-11.988282 11.988282zm0 0" fill="#5b9ed6"/><path d="m396.117188 40.167969h-32.988282c-.003906 0-.003906 0-.003906 0h14.964844c6.820312 0 12.347656 5.53125 12.347656 12.351562v3.089844c0 6.820313-5.527344 12.351563-12.347656 12.351563h18.027344c6.820312 0 12.351562-5.53125 12.351562-12.351563v-3.089844c0-6.820312-5.53125-12.351562-12.351562-12.351562zm0 0" fill="#5390c4"/><path d="m396.476562 117.410156h-33.710937c-6.621094 0-11.988281-5.367187-11.988281-11.988281v-3.8125c0-6.621094 5.367187-11.988281 11.988281-11.988281h33.710937c6.621094 0 11.988282 5.367187 11.988282 11.988281v3.8125c.003906 6.621094-5.367188 11.988281-11.988282 11.988281zm0 0" fill="#5b9ed6"/><path d="m396.476562 166.859375h-33.710937c-6.621094 0-11.988281-5.367187-11.988281-11.988281v-3.816406c0-6.621094 5.367187-11.984376 11.988281-11.984376h33.710937c6.621094 0 11.988282 5.363282 11.988282 11.984376v3.816406c.003906 6.621094-5.367188 11.988281-11.988282 11.988281zm0 0" fill="#5b9ed6"/><path d="m396.117188 89.617188h-32.988282c-.003906 0-.003906 0-.003906 0h14.964844c6.820312 0 12.347656 5.53125 12.347656 12.351562v3.089844c0 6.820312-5.527344 12.351562-12.347656 12.351562h18.027344c6.820312 0 12.351562-5.53125 12.351562-12.351562v-3.089844c0-6.820312-5.53125-12.351562-12.351562-12.351562zm0 0" fill="#5390c4"/><path d="m396.117188 139.066406h-32.988282c-.003906 0-.003906 0-.003906 0h14.964844c6.820312 0 12.347656 5.53125 12.347656 12.351563v3.089843c0 6.820313-5.527344 12.351563-12.347656 12.351563h18.027344c6.820312 0 12.351562-5.53125 12.351562-12.351563v-3.089843c0-6.820313-5.53125-12.351563-12.351562-12.351563zm0 0" fill="#5390c4"/><path d="m469.769531 166.859375h-25.078125c-6.164062 0-11.15625-4.996094-11.15625-11.15625v-104.378906c0-6.160157 4.992188-11.152344 11.15625-11.152344h25.078125c6.160157 0 11.152344 4.992187 11.152344 11.152344v104.378906c0 6.160156-4.992187 11.15625-11.152344 11.15625zm0 0" fill="#5b9ed6"/><path d="m469.429688 40.167969h-17.683594c6.347656 0 11.492187 5.148437 11.492187 11.492187v103.707032c0 6.347656-5.144531 11.492187-11.492187 11.492187h17.683594c6.347656 0 11.492187-5.144531 11.492187-11.492187v-103.707032c0-6.34375-5.144531-11.492187-11.492187-11.492187zm0 0" fill="#5390c4"/><g fill="#007000"><path d="m256 72.941406h26.441406c4.269532 0 7.726563-3.460937 7.726563-7.726562 0-4.269532-3.457031-7.726563-7.726563-7.726563h-26.441406c-4.269531 0-7.726562 3.457031-7.726562 7.726563 0 4.265625 3.457031 7.726562 7.726562 7.726562zm0 0"/><path d="m62.292969 72.941406h.710937c4.265625 0 7.722656-3.460937 7.722656-7.726562 0-4.269532-3.457031-7.726563-7.722656-7.726563h-.710937c-4.265625 0-7.726563 3.457031-7.726563 7.726563 0 4.265625 3.460938 7.726562 7.726563 7.726562zm0 0"/><path d="m62.226562 183.558594c0 4.265625 3.457032 7.726562 7.726563 7.726562h20.332031c3.019532 0 5.761719-1.757812 7.019532-4.5l12.988281-28.230468 18.242187 56.34375c1.035156 3.199218 4.015625 5.347656 7.347656 5.347656.140626 0 .28125-.003906.421876-.011719 3.5-.191406 6.433593-2.714844 7.144531-6.144531l14.914062-71.90625 6.097657 37.679687c.605468 3.738281 3.835937 6.492188 7.628906 6.492188h29.730468c3.730469 0 6.929688-2.667969 7.601563-6.339844l3.597656-19.683594 9.601563 43.382813c.714844 3.222656 3.402344 5.640625 6.683594 6.007812 3.292968.371094 6.4375-1.390625 7.847656-4.382812l9.617187-20.371094h25.296875c4.269532 0 7.726563-3.460938 7.726563-7.726562 0-4.269532-3.457031-7.726563-7.726563-7.726563h-30.191406c-2.992188 0-5.710938 1.726563-6.988281 4.429687l-2.0625 4.367188-12.984375-58.660156c-.792969-3.589844-4.019532-6.125-7.6875-6.054688-3.675782.066406-6.796875 2.71875-7.457032 6.335938l-9.316406 50.96875h-16.714844l-11.734374-72.523438c-.59375-3.679687-3.730469-6.410156-7.457032-6.492187-3.710937-.0625-6.976562 2.507812-7.734375 6.15625l-17.488281 84.332031-15.351562-47.410156c-.980469-3.027344-3.71875-5.144532-6.894532-5.332032-3.1875-.195312-6.144531 1.589844-7.476562 4.484376l-19.1875 41.714843h-15.386719c-4.269531 0-7.726563 3.457031-7.726563 7.726563zm0 0"/></g></svg>